<svg enable-background="new 0 0 64 64" version="1.1" xml:space="preserve" xmlns="http://www.w3.org/2000/svg" xmlns:xlink="http://www.w3.org/1999/xlink" width="90" height="49" style=""><rect id="backgroundrect" width="100%" height="100%" x="0" y="0" fill="none" stroke="none" style="" class=""/><g class="currentLayer" style=""><title>Layer 1</title><g id="svg_1" class=""><g id="svg_2"><path d="M60.18471795320511,45.54777526855469 H8.184714138507843 c-2.5,0 -5,-2.5 -5,-5 v-1 l62,0 v1 C65.18471795320511,43.14777374267578 62.7847164273262,45.54777526855469 60.18471795320511,45.54777526855469 zM5.3847134709358215,41.54777526855469 c0.5,1.100000023841858 1.7000000476837158,2 2.799999952316284,2 h52 c1.100000023841858,0 2.299999952316284,-0.8999999761581421 2.799999952316284,-2 L5.3847134709358215,41.54777526855469 z" fill="#ffffff" id="svg_3"/></g><g id="svg_4"><path d="M42.18471795320511,11.547771453857422 c-2.200000047683716,0 -4,-1.7999999523162842 -4,-4 c0,-1.100000023841858 -0.8999999761581421,-2 -2,-2 c-1.100000023841858,0 -2,0.8999999761581421 -2,2 h-2 c0,-2.200000047683716 1.7999999523162842,-4 4,-4 c2.200000047683716,0 4,1.7999999523162842 4,4 c0,1.100000023841858 0.8999999761581421,2 2,2 s2,-0.8999999761581421 2,-2 h2 C46.18471795320511,9.747772216796875 44.38471871614456,11.547771453857422 42.18471795320511,11.547771453857422 z" fill="#ffffff" id="svg_5"/></g><g id="svg_6"><path d="M54.18471795320511,12.547771453857422 c-2.799999952316284,0 -5,-2.200000047683716 -5,-5 c0,-1.7000000476837158 -1.2999999523162842,-3 -3,-3 s-3,1.2999999523162842 -3,3 h-2 c0,-2.799999952316284 2.200000047683716,-5 5,-5 s5,2.200000047683716 5,5 c0,1.7000000476837158 1.2999999523162842,3 3,3 s3,-1.2999999523162842 3,-3 h2 C59.18471795320511,10.347770690917969 56.984717190265656,12.547771453857422 54.18471795320511,12.547771453857422 z" fill="#ffffff" id="svg_7"/></g><g id="svg_8"><path d="M31.184710323810577,41.54777526855469 C20.184710323810577,41.54777526855469 11.184714138507843,32.547767639160156 11.184714138507843,21.547767639160156 c0,-2.200000047683716 0.30000001192092896,-4.300000190734863 1,-6.300000190734863 l0.20000000298023224,-0.699999988079071 l37.5,0 l0.20000000298023224,0.699999988079071 c0.699999988079071,2 1,4.199999809265137 1,6.300000190734863 C51.18471795320511,32.547767639160156 42.18471795320511,41.54777526855469 31.184710323810577,41.54777526855469 zM13.88471394777298,16.547771453857422 c-0.5,1.600000023841858 -0.699999988079071,3.299999952316284 -0.699999988079071,5 c0,9.899999618530273 8.100000381469727,18 18,18 c9.899999618530273,0 18,-8.100000381469727 18,-18 c0,-1.7000000476837158 -0.20000000298023224,-3.4000000953674316 -0.699999988079071,-5 L13.88471394777298,16.547771453857422 z" fill="#ffffff" id="svg_9"/></g><g id="svg_10"><path d="M31.184710323810577,37.54777526855469 c-8.800000190734863,0 -16,-6.699999809265137 -16,-15 v-1 h32 v1 C47.18471795320511,30.847766876220703 39.984717190265656,37.54777526855469 31.184710323810577,37.54777526855469 zM17.184714138507843,23.547767639160156 c0.6000000238418579,6.699999809265137 6.599999904632568,12 14,12 s13.399999618530273,-5.300000190734863 14,-12 H17.184714138507843 z" fill="#ffffff" id="svg_11"/></g><g id="svg_12"><path d="M55.18471795320511,28.547767639160156 v-2 c2.200000047683716,0 4,-1.7999999523162842 4,-4 c0,-2.200000047683716 -1.7999999523162842,-4 -4,-4 s-4,1.7999999523162842 -4,4 h-2 c0,-3.299999952316284 2.700000047683716,-6 6,-6 s6,2.700000047683716 6,6 S58.484717190265656,28.547767639160156 55.18471795320511,28.547767639160156 z" fill="#ffffff" id="svg_13"/></g><g id="svg_14"><rect fill="#ffffff" height="11" width="2" x="35.184713423252106" y="15.547770738601685" id="svg_15"/></g><g id="svg_16"><path d="M39.18471795320511,31.547767639160156 h-6 v-6 h6 V31.547767639160156 zM35.18471795320511,29.547767639160156 h2 v-2 h-2 V29.547767639160156 z" fill="#ffffff" id="svg_17"/></g><g id="svg_18"><rect fill="#ffffff" height="2" width="6" x="15.184713423252106" y="18.547770738601685" id="svg_19"/></g><g id="svg_20"><rect fill="#ffffff" height="2" width="2" x="23.184713423252106" y="18.547770738601685" id="svg_21"/></g></g></g></svg>